<?xml version="1.0" standalone="no"?>
<!DOCTYPE svg PUBLIC "-//W3C//DTD SVG 20010904//EN"
 "http://www.w3.org/TR/2001/REC-SVG-20010904/DTD/svg10.dtd">
<svg version="1.0" xmlns="http://www.w3.org/2000/svg"
 width="128.000000pt" height="128.000000pt" viewBox="0 0 128.000000 128.000000"
 preserveAspectRatio="xMidYMid meet">

<g transform="translate(0.000000,128.000000) scale(0.100000,-0.100000)"
fill="#000000" stroke="none">
<path d="M247 1034 c-12 -12 -8 -262 4 -270 6 -3 37 20 70 52 l59 58 60 -59
c41 -41 63 -56 70 -49 7 7 10 60 8 140 -3 107 -6 129 -18 129 -12 0 -16 -20
-18 -104 l-3 -105 -49 49 -50 49 -50 -49 -49 -49 -3 104 c-3 95 -11 123 -31
104z"/>
<path d="M761 1023 c-124 -65 -93 -242 45 -259 73 -9 141 46 150 122 13 104
-103 186 -195 137z m103 -33 c27 -10 56 -56 56 -90 0 -51 -49 -100 -100 -100
-33 0 -71 23 -86 51 -46 89 35 176 130 139z"/>
<path d="M244 607 c-2 -7 -3 -69 -2 -138 3 -102 6 -124 18 -124 11 0 16 13 18
48 l3 47 75 0 74 0 31 -50 c17 -27 35 -50 39 -50 20 0 20 23 -1 59 l-21 39 21
21 c29 29 30 112 1 141 -18 18 -33 20 -135 20 -86 0 -117 -3 -121 -13z m231
-77 l0 -45 -97 -3 -98 -3 0 51 0 51 98 -3 97 -3 0 -45z"/>
<path d="M824 447 c-2 -7 -3 -69 -2 -138 l3 -124 80 -3 c127 -4 190 42 190
138 0 57 -24 96 -76 122 -43 22 -187 26 -195 5z m185 -41 c66 -35 66 -137 0
-172 -16 -8 -55 -14 -89 -14 l-60 0 0 100 0 100 60 0 c34 0 73 -6 89 -14z"/>
</g>
</svg>
