<svg width="26" height="26" viewBox="0 0 26 26" fill="none" xmlns="http://www.w3.org/2000/svg">
<path d="M22.6874 10.5002C22.6874 10.2515 22.5887 10.0131 22.4129 9.83724C22.237 9.66142 21.9986 9.56265 21.7499 9.56265C21.5013 9.56265 21.2629 9.66142 21.087 9.83724C20.9112 10.0131 20.8124 10.2515 20.8124 10.5002H22.6874ZM5.18745 10.5002C5.18745 10.2515 5.08868 10.0131 4.91286 9.83724C4.73705 9.66142 4.49859 9.56265 4.24995 9.56265C4.00131 9.56265 3.76285 9.66142 3.58704 9.83724C3.41122 10.0131 3.31245 10.2515 3.31245 10.5002H5.18745ZM23.5874 13.6627C23.6733 13.7548 23.7768 13.8286 23.8918 13.8799C24.0068 13.9311 24.1309 13.9587 24.2568 13.9609C24.3827 13.9631 24.5077 13.94 24.6244 13.8928C24.7412 13.8457 24.8472 13.7755 24.9362 13.6864C25.0253 13.5974 25.0955 13.4914 25.1426 13.3746C25.1898 13.2579 25.2129 13.1329 25.2107 13.007C25.2085 12.8811 25.1809 12.757 25.1297 12.642C25.0784 12.527 25.0046 12.4235 24.9124 12.3377L23.5874 13.6627ZM12.9999 1.75015L13.6624 1.08765C13.4867 0.912089 13.2484 0.813477 12.9999 0.813477C12.7515 0.813477 12.5132 0.912089 12.3374 1.08765L12.9999 1.75015ZM1.08745 12.3377C0.995339 12.4235 0.921462 12.527 0.870222 12.642C0.818982 12.757 0.791429 12.8811 0.789208 13.007C0.786987 13.1329 0.810143 13.2579 0.857294 13.3746C0.904446 13.4914 0.974626 13.5974 1.06365 13.6864C1.15267 13.7755 1.25872 13.8457 1.37545 13.8928C1.49219 13.94 1.61722 13.9631 1.7431 13.9609C1.86898 13.9587 1.99312 13.9311 2.10812 13.8799C2.22312 13.8286 2.32662 13.7548 2.41245 13.6627L1.08745 12.3377ZM6.74995 25.1877H19.2499V23.3127H6.74995V25.1877ZM22.6874 21.7502V10.5002H20.8124V21.7502H22.6874ZM5.18745 21.7502V10.5002H3.31245V21.7502H5.18745ZM24.9124 12.3377L13.6624 1.08765L12.3374 2.41265L23.5874 13.6627L24.9124 12.3377ZM12.3374 1.08765L1.08745 12.3377L2.41245 13.6627L13.6624 2.41265L12.3374 1.08765ZM19.2499 25.1877C20.1616 25.1877 21.036 24.8255 21.6806 24.1808C22.3253 23.5362 22.6874 22.6618 22.6874 21.7502H20.8124C20.8124 22.6127 20.1124 23.3127 19.2499 23.3127V25.1877ZM6.74995 23.3127C5.88745 23.3127 5.18745 22.6127 5.18745 21.7502H3.31245C3.31245 22.6618 3.67461 23.5362 4.31927 24.1808C4.96392 24.8255 5.83827 25.1877 6.74995 25.1877V23.3127Z" fill="#EDEDEA"/>
</svg>
