<svg width="32" height="32" viewBox="0 0 32 32" fill="none" xmlns="http://www.w3.org/2000/svg">
<path d="M16 11C14.6739 11 13.4021 11.5268 12.4645 12.4645C11.5268 13.4021 11 14.6739 11 16C11 17.3261 11.5268 18.5979 12.4645 19.5355C13.4021 20.4732 14.6739 21 16 21C17.3261 21 18.5979 20.4732 19.5355 19.5355C20.4732 18.5979 21 17.3261 21 16C21 14.6739 20.4732 13.4021 19.5355 12.4645C18.5979 11.5268 17.3261 11 16 11ZM13 16C13 15.2044 13.3161 14.4413 13.8787 13.8787C14.4413 13.3161 15.2044 13 16 13C16.7956 13 17.5587 13.3161 18.1213 13.8787C18.6839 14.4413 19 15.2044 19 16C19 16.7956 18.6839 17.5587 18.1213 18.1213C17.5587 18.6839 16.7956 19 16 19C15.2044 19 14.4413 18.6839 13.8787 18.1213C13.3161 17.5587 13 16.7956 13 16ZM12.84 29.628C13.875 29.875 14.936 30 16 30C17.063 29.9984 18.1222 29.8725 19.156 29.625C19.453 29.555 19.7211 29.3948 19.9235 29.1663C20.1258 28.9378 20.2524 28.6523 20.286 28.349L20.52 26.219C20.5426 25.9866 20.6201 25.763 20.7462 25.5665C20.8724 25.3701 21.0434 25.2065 21.2453 25.0892C21.4472 24.972 21.674 24.9045 21.9072 24.8922C22.1403 24.88 22.373 24.9235 22.586 25.019L24.541 25.875C24.8209 25.9982 25.1321 26.0311 25.4316 25.9693C25.731 25.9075 26.0038 25.7539 26.212 25.53C27.6565 23.9736 28.7348 22.1139 29.368 20.087C29.4588 19.7938 29.4561 19.4797 29.3602 19.1881C29.2643 18.8966 29.0801 18.6421 28.833 18.46L27.104 17.185C26.9152 17.0474 26.7615 16.867 26.6557 16.6587C26.5499 16.4503 26.4949 16.2199 26.4952 15.9862C26.4955 15.7526 26.5511 15.5223 26.6574 15.3142C26.7638 15.1061 26.9178 14.9261 27.107 14.789L28.827 13.519C29.0755 13.3374 29.2609 13.0825 29.3572 12.7902C29.4535 12.4979 29.4559 12.1827 29.364 11.889C28.732 9.86139 27.6532 8.0014 26.207 6.446C25.9979 6.22244 25.7246 6.06921 25.4248 6.00743C25.125 5.94564 24.8134 5.97833 24.533 6.101L22.587 6.957C22.3737 7.04998 22.1415 7.09146 21.9092 7.0781C21.6769 7.06473 21.4511 6.9969 21.2498 6.88008C21.0486 6.76326 20.8777 6.60073 20.7509 6.40563C20.6241 6.21052 20.545 5.98833 20.52 5.757L20.284 3.637C20.251 3.33006 20.1226 3.04119 19.9168 2.81104C19.7111 2.58089 19.4383 2.42104 19.137 2.354C18.1101 2.12455 17.0621 2.00289 16.01 1.991C14.9516 2.00353 13.8974 2.12518 12.864 2.354C12.5626 2.4199 12.2896 2.579 12.0838 2.80875C11.8779 3.0385 11.7496 3.32723 11.717 3.634L11.48 5.756C11.4541 5.98768 11.3743 6.21008 11.247 6.40538C11.1198 6.60068 10.9485 6.76347 10.747 6.8807C10.5455 6.99792 10.3193 7.06634 10.0867 7.08045C9.85396 7.09457 9.6212 7.054 9.407 6.962L7.461 6.105C7.18022 5.98574 6.86965 5.95535 6.57107 6.01793C6.2725 6.0805 6.00027 6.23304 5.791 6.455C4.34464 8.0119 3.26493 9.87269 2.631 11.901C2.54077 12.194 2.54389 12.5078 2.63993 12.799C2.73596 13.0901 2.92016 13.3442 3.167 13.526L4.892 14.798C5.07991 14.9363 5.23267 15.1168 5.33796 15.325C5.44325 15.5332 5.4981 15.7632 5.4981 15.9965C5.4981 16.2298 5.44325 16.4598 5.33796 16.668C5.23267 16.8762 5.07991 17.0567 4.892 17.195L3.167 18.47C2.91922 18.6522 2.7345 18.9072 2.63859 19.1994C2.54268 19.4916 2.54038 19.8064 2.632 20.1C3.26564 22.1296 4.34534 23.9918 5.792 25.55C5.92953 25.6979 6.09628 25.8156 6.28167 25.8956C6.46707 25.9756 6.66707 26.0163 6.869 26.015C7.072 26.015 7.273 25.973 7.46 25.892L9.415 25.033C9.62823 24.9409 9.86011 24.9 10.092 24.9138C10.3239 24.9276 10.5493 24.9955 10.7501 25.1122C10.951 25.229 11.1216 25.3912 11.2484 25.5858C11.3751 25.7805 11.4545 26.0021 11.48 26.233L11.715 28.359C11.7491 28.6607 11.8755 28.9445 12.0768 29.1718C12.2781 29.3991 12.5446 29.5577 12.84 29.628ZM18.341 27.763C16.7981 28.0795 15.2069 28.0795 13.664 27.763L13.469 26.023C13.3737 25.1718 12.9678 24.3856 12.329 23.815C11.8289 23.3746 11.2144 23.0846 10.5566 22.9785C9.89873 22.8723 9.22426 22.9543 8.611 23.215L7.005 23.915C5.96899 22.7287 5.17174 21.3535 4.657 19.865L6.081 18.813C6.52094 18.4888 6.87855 18.0658 7.12501 17.5781C7.37147 17.0903 7.49987 16.5515 7.49987 16.005C7.49987 15.4585 7.37147 14.9197 7.12501 14.4319C6.87855 13.9442 6.52094 13.5212 6.081 13.197L4.66 12.147C5.17534 10.66 5.97256 9.28622 7.008 8.101L8.608 8.801C9.049 8.99574 9.52592 9.09589 10.008 9.095C10.8665 9.09231 11.694 8.77419 12.3333 8.20114C12.9725 7.62809 13.3789 6.84009 13.475 5.987L13.669 4.24C14.443 4.09 15.229 4.01 16.016 4C16.798 4.01 17.578 4.09 18.346 4.24L18.532 5.98C18.6246 6.83364 19.0296 7.6229 19.669 8.196C20.1694 8.63907 20.7855 8.93072 21.4454 9.03696C22.1053 9.14319 22.7818 9.05962 23.396 8.796L24.996 8.096C26.0329 9.28089 26.8309 10.6551 27.346 12.143L25.923 13.189C25.4808 13.5121 25.1211 13.9349 24.8731 14.4232C24.6251 14.9115 24.4959 15.4514 24.4959 15.999C24.4959 16.5466 24.6251 17.0865 24.8731 17.5748C25.1211 18.0631 25.4808 18.4859 25.923 18.809L27.345 19.859C26.8294 21.3441 26.0333 22.7163 25 23.901L23.4 23.201C22.8993 22.9782 22.353 22.877 21.8057 22.9058C21.2585 22.9345 20.7258 23.0924 20.2512 23.3665C19.7766 23.6405 19.3736 24.023 19.0752 24.4826C18.7767 24.9422 18.5913 25.466 18.534 26.011L18.341 27.763Z" fill="#0875BA"/>
</svg>
