<svg width="752" height="796" viewBox="0 0 752 796" fill="none" xmlns="http://www.w3.org/2000/svg">
<path d="M722.503 649.6C703.639 604.917 676.264 564.33 641.903 530.1C607.646 495.771 567.065 468.4 522.403 449.5C522.003 449.3 521.603 449.2 521.203 449C583.503 404 624.003 330.7 624.003 248C624.003 111 513.003 0 376.003 0C239.003 0 128.003 111 128.003 248C128.003 330.7 168.502 404 230.802 449.1C230.402 449.3 230.003 449.4 229.603 449.6C184.803 468.5 144.603 495.6 110.103 530.2C75.7734 564.457 48.4029 605.037 29.5025 649.7C10.9347 693.425 0.920694 740.305 0.0025006 787.8C-0.0241899 788.867 0.163013 789.929 0.553083 790.923C0.943154 791.917 1.5282 792.822 2.27374 793.587C3.01928 794.351 3.91024 794.958 4.89412 795.372C5.87799 795.787 6.93488 796 8.0025 796H68.0025C72.4025 796 75.9025 792.5 76.0025 788.2C78.0025 711 109.002 638.7 163.802 583.9C220.502 527.2 295.803 496 376.003 496C456.202 496 531.503 527.2 588.203 583.9C643.003 638.7 674.003 711 676.003 788.2C676.103 792.6 679.603 796 684.003 796H744.003C745.07 796 746.127 795.787 747.111 795.372C748.095 794.958 748.986 794.351 749.731 793.587C750.477 792.822 751.062 791.917 751.452 790.923C751.842 789.929 752.029 788.867 752.003 787.8C751.003 740 741.103 693.5 722.503 649.6ZM376.003 420C330.103 420 286.902 402.1 254.402 369.6C221.902 337.1 204.003 293.9 204.003 248C204.003 202.1 221.902 158.9 254.402 126.4C286.902 93.9 330.103 76 376.003 76C421.903 76 465.102 93.9 497.602 126.4C530.102 158.9 548.003 202.1 548.003 248C548.003 293.9 530.102 337.1 497.602 369.6C465.102 402.1 421.903 420 376.003 420Z" fill="#0875BA"/>
</svg>
