<?xml version="1.0" standalone="no"?>
<!DOCTYPE svg PUBLIC "-//W3C//DTD SVG 20010904//EN"
 "http://www.w3.org/TR/2001/REC-SVG-20010904/DTD/svg10.dtd">
<svg version="1.0" xmlns="http://www.w3.org/2000/svg"
 width="512.000000pt" height="512.000000pt" viewBox="0 0 512.000000 512.000000"
 preserveAspectRatio="xMidYMid meet">

<g transform="translate(0.000000,512.000000) scale(0.100000,-0.100000)"
fill="#000000" stroke="none">
<path d="M2652 4161 c-83 -24 -196 -81 -269 -135 -231 -169 -577 -593 -832
-1019 -29 -49 -54 -87 -56 -85 -1 2 4 77 12 168 17 196 12 462 -11 566 -46
213 -137 329 -303 385 -98 34 -231 32 -330 -3 -184 -65 -300 -205 -381 -459
-129 -402 -146 -1120 -41 -1659 93 -479 272 -795 520 -919 177 -89 407 -80
585 24 66 38 209 183 266 270 76 116 151 258 271 516 168 358 317 649 334 649
3 0 3 -42 1 -92 -10 -188 15 -410 64 -558 119 -366 410 -547 723 -449 134 42
266 151 366 304 33 49 136 243 229 430 264 532 372 720 692 1206 236 359 242
373 243 504 0 111 -9 138 -67 196 -55 55 -110 74 -213 74 -107 -1 -179 -23
-300 -92 -232 -133 -554 -441 -805 -770 -30 -40 -56 -71 -58 -69 -2 2 2 50 8
106 18 151 8 414 -19 515 -49 184 -138 308 -269 372 -72 36 -81 38 -186 40
-84 2 -126 -2 -174 -16z"/>
</g>
</svg>
