<?xml version="1.0" standalone="no"?>
<!DOCTYPE svg PUBLIC "-//W3C//DTD SVG 20010904//EN"
 "http://www.w3.org/TR/2001/REC-SVG-20010904/DTD/svg10.dtd">
<svg version="1.0" xmlns="http://www.w3.org/2000/svg"
 width="512.000000pt" height="512.000000pt" viewBox="0 0 512.000000 512.000000"
 preserveAspectRatio="xMidYMid meet">

<g transform="translate(0.000000,512.000000) scale(0.100000,-0.100000)"
fill="#000000" stroke="none">
<path d="M1710 4480 l0 -210 -747 -2 -748 -3 -3 -212 -2 -213 1190 0 c829 0
1190 -3 1190 -11 0 -20 -104 -266 -162 -382 -115 -231 -267 -464 -422 -646
-39 -47 -74 -89 -77 -94 -21 -30 -307 356 -440 593 l-61 110 -214 0 -214 0 64
-129 c81 -160 146 -272 250 -426 68 -101 125 -175 301 -392 l20 -24 -540 -534
-540 -533 150 -151 150 -151 532 532 533 533 330 -330 c181 -181 332 -327 334
-324 7 7 156 408 156 419 0 5 -119 127 -265 271 -146 144 -265 265 -265 268 0
3 42 56 93 117 288 347 530 777 666 1187 l33 97 314 0 314 0 -2 213 -3 212
-747 3 -748 2 0 210 0 210 -210 0 -210 0 0 -210z"/>
<path d="M3515 2973 c-4 -10 -215 -574 -470 -1253 -255 -679 -468 -1247 -474
-1262 l-11 -28 214 0 213 0 120 318 119 317 505 3 506 2 120 -317 120 -318
212 -3 c116 -1 211 1 211 4 0 4 -215 580 -477 1281 l-478 1273 -211 0 c-193 0
-212 -2 -219 -17z m399 -1038 l164 -440 -341 -3 c-187 -1 -342 -1 -344 2 -3 2
266 731 333 900 10 25 -10 73 188 -459z"/>
</g>
</svg>
