<?xml version="1.0" standalone="no"?>
<!DOCTYPE svg PUBLIC "-//W3C//DTD SVG 20010904//EN"
 "http://www.w3.org/TR/2001/REC-SVG-20010904/DTD/svg10.dtd">
<svg version="1.0" xmlns="http://www.w3.org/2000/svg"
 width="16.000000pt" height="16.000000pt" viewBox="0 0 16.000000 16.000000"
 preserveAspectRatio="xMidYMid meet">

<g transform="translate(0.000000,16.000000) scale(0.100000,-0.100000)"
fill="#000000" stroke="none">
<path d="M12 128 c-14 -14 -16 -108 -3 -108 6 0 13 5 16 10 3 6 30 10 59 10
28 0 57 5 64 12 15 15 15 61 0 76 -16 16 -120 16 -136 0z m25 -40 c-3 -7 -5
-2 -5 12 0 14 2 19 5 13 2 -7 2 -19 0 -25z m55 23 c6 10 8 7 6 -11 -2 -16 -9
-25 -20 -25 -18 0 -20 8 -10 34 4 12 7 12 10 2 4 -11 6 -11 14 0z m48 -32 c0
-5 -8 -9 -17 -8 -11 0 -13 3 -5 6 6 2 9 10 6 15 -4 7 -2 8 4 4 7 -4 12 -11 12
-17z"/>
</g>
</svg>
